<svg width="623" height="243" viewBox="0 0 623 243" fill="none" xmlns="http://www.w3.org/2000/svg">
<path d="M67.6892 85.6909V159H54.3017L22.408 112.86H21.871V159H6.37159V85.6909H19.9739L51.617 131.795H52.2614V85.6909H67.6892ZM81.063 98.4699V85.6909H141.271V98.4699H118.827V159H103.507V98.4699H81.063Z" fill="black"/>
<path d="M317.359 159H291.372V85.6909H317.574C324.948 85.6909 331.295 87.1585 336.617 90.0938C341.939 93.0051 346.031 97.1932 348.895 102.658C351.782 108.123 353.226 114.661 353.226 122.274C353.226 129.91 351.782 136.473 348.895 141.961C346.031 147.45 341.915 151.662 336.545 154.597C331.2 157.532 324.805 159 317.359 159ZM306.871 145.72H316.715C321.297 145.72 325.151 144.909 328.277 143.286C331.427 141.639 333.789 139.098 335.364 135.661C336.963 132.201 337.762 127.739 337.762 122.274C337.762 116.857 336.963 112.43 335.364 108.994C333.789 105.557 331.439 103.028 328.312 101.405C325.186 99.7824 321.332 98.971 316.751 98.971H306.871V145.72ZM367.781 159V104.018H383.03V159H367.781ZM375.441 96.9307C373.174 96.9307 371.229 96.179 369.607 94.6756C368.008 93.1483 367.208 91.3227 367.208 89.1989C367.208 87.0989 368.008 85.2972 369.607 83.7938C371.229 82.2665 373.174 81.5028 375.441 81.5028C377.708 81.5028 379.641 82.2665 381.24 83.7938C382.863 85.2972 383.674 87.0989 383.674 89.1989C383.674 91.3227 382.863 93.1483 381.24 94.6756C379.641 96.179 377.708 96.9307 375.441 96.9307ZM423.376 180.764C418.436 180.764 414.2 180.084 410.668 178.723C407.16 177.387 404.368 175.561 402.292 173.247C400.216 170.932 398.868 168.331 398.247 165.443L412.351 163.546C412.78 164.644 413.46 165.67 414.391 166.624C415.322 167.579 416.551 168.343 418.078 168.915C419.629 169.512 421.514 169.81 423.734 169.81C427.051 169.81 429.783 168.999 431.931 167.376C434.102 165.777 435.188 163.093 435.188 159.322V149.264H434.544C433.876 150.791 432.873 152.235 431.537 153.595C430.201 154.955 428.482 156.065 426.382 156.924C424.282 157.783 421.777 158.213 418.865 158.213C414.737 158.213 410.979 157.258 407.59 155.349C404.225 153.416 401.54 150.469 399.536 146.507C397.555 142.522 396.565 137.487 396.565 131.402C396.565 125.173 397.579 119.971 399.607 115.795C401.636 111.619 404.332 108.493 407.697 106.416C411.086 104.34 414.797 103.302 418.83 103.302C421.908 103.302 424.485 103.827 426.561 104.877C428.638 105.903 430.308 107.192 431.573 108.743C432.861 110.27 433.852 111.774 434.544 113.253H435.117V104.018H450.258V159.537C450.258 164.214 449.113 168.128 446.822 171.278C444.531 174.428 441.357 176.79 437.3 178.365C433.267 179.964 428.626 180.764 423.376 180.764ZM423.698 146.758C426.156 146.758 428.232 146.149 429.926 144.932C431.644 143.691 432.957 141.926 433.864 139.635C434.794 137.32 435.26 134.552 435.26 131.33C435.26 128.109 434.806 125.316 433.9 122.954C432.993 120.568 431.68 118.718 429.962 117.406C428.244 116.093 426.156 115.437 423.698 115.437C421.192 115.437 419.08 116.117 417.362 117.477C415.644 118.814 414.343 120.675 413.46 123.061C412.577 125.448 412.136 128.204 412.136 131.33C412.136 134.504 412.577 137.248 413.46 139.563C414.367 141.854 415.668 143.632 417.362 144.897C419.08 146.138 421.192 146.758 423.698 146.758ZM465.753 159V104.018H481.002V159H465.753ZM473.413 96.9307C471.146 96.9307 469.201 96.179 467.578 94.6756C465.979 93.1483 465.18 91.3227 465.18 89.1989C465.18 87.0989 465.979 85.2972 467.578 83.7938C469.201 82.2665 471.146 81.5028 473.413 81.5028C475.68 81.5028 477.613 82.2665 479.212 83.7938C480.835 85.2972 481.646 87.0989 481.646 89.1989C481.646 91.3227 480.835 93.1483 479.212 94.6756C477.613 96.179 475.68 96.9307 473.413 96.9307ZM525.822 104.018V115.473H492.711V104.018H525.822ZM500.228 90.8455H515.477V142.105C515.477 143.513 515.692 144.61 516.121 145.398C516.551 146.161 517.147 146.698 517.911 147.009C518.698 147.319 519.605 147.474 520.631 147.474C521.347 147.474 522.063 147.414 522.779 147.295C523.495 147.152 524.044 147.044 524.426 146.973L526.824 158.32C526.06 158.559 524.986 158.833 523.602 159.143C522.218 159.477 520.536 159.68 518.555 159.752C514.88 159.895 511.659 159.406 508.89 158.284C506.146 157.162 504.01 155.42 502.483 153.058C500.956 150.695 500.204 147.713 500.228 144.109V90.8455ZM554.793 160.038C551.285 160.038 548.159 159.43 545.415 158.213C542.671 156.972 540.499 155.146 538.9 152.736C537.325 150.302 536.538 147.271 536.538 143.644C536.538 140.589 537.098 138.024 538.22 135.948C539.342 133.872 540.869 132.201 542.802 130.936C544.735 129.672 546.93 128.717 549.388 128.073C551.87 127.428 554.471 126.975 557.192 126.713C560.389 126.378 562.967 126.068 564.923 125.782C566.88 125.472 568.3 125.018 569.183 124.422C570.066 123.825 570.508 122.942 570.508 121.773V121.558C570.508 119.291 569.792 117.537 568.36 116.296C566.952 115.055 564.947 114.435 562.346 114.435C559.602 114.435 557.418 115.043 555.796 116.26C554.173 117.453 553.099 118.957 552.574 120.77L538.471 119.625C539.186 116.284 540.594 113.397 542.694 110.963C544.794 108.505 547.503 106.619 550.82 105.307C554.161 103.97 558.027 103.302 562.418 103.302C565.472 103.302 568.396 103.66 571.188 104.376C574.004 105.092 576.497 106.202 578.669 107.705C580.864 109.209 582.594 111.141 583.859 113.504C585.124 115.843 585.756 118.647 585.756 121.916V159H571.295V151.376H570.865C569.983 153.094 568.801 154.609 567.322 155.922C565.842 157.21 564.064 158.224 561.988 158.964C559.912 159.68 557.514 160.038 554.793 160.038ZM559.16 149.514C561.404 149.514 563.384 149.073 565.102 148.19C566.821 147.283 568.169 146.066 569.147 144.539C570.126 143.011 570.615 141.281 570.615 139.348V133.514C570.138 133.824 569.481 134.11 568.646 134.373C567.835 134.611 566.916 134.838 565.89 135.053C564.864 135.244 563.838 135.423 562.811 135.59C561.785 135.733 560.855 135.864 560.019 135.984C558.23 136.246 556.667 136.664 555.33 137.236C553.994 137.809 552.956 138.585 552.216 139.563C551.476 140.518 551.106 141.711 551.106 143.143C551.106 145.219 551.858 146.806 553.361 147.903C554.889 148.977 556.822 149.514 559.16 149.514ZM616.196 85.6909V159H600.947V85.6909H616.196Z" fill="black"/>
<path d="M6 51V6H214.5V237H6V192" stroke="black" stroke-width="12"/>
</svg>
